<svg xmlns="http://www.w3.org/2000/svg" width="147" height="40" viewBox="0 0 147 40" fill="none"><g clip-path="url(#clip0_18481_1792)"><path d="M7.20983 35.0665C7.15806 34.8343 7.23054 34.6523 7.39625 34.4905C11.8388 30.6199 15.0698 25.112 21.9149 25.9205C26.4611 26.4561 28.6669 29.5082 31.5664 32.4896C32.2984 33.1735 32.9705 33.818 33.7101 34.5714C34.2278 35.188 34.373 35.4 33.7101 35.9862C32.2084 37.3101 27.9316 39.4728 25.9433 39.7459C25.4324 39.7847 25.3228 39.5356 25.0337 39.0947C23.6616 37.0024 23.4775 36.6343 21.9149 34.1726C21.1901 33.0307 19.8024 33.2024 19.1085 34.2839L16.0329 39.2202C15.8776 39.5236 15.7636 39.6448 15.4115 39.5943C13.5268 39.3417 10.0369 37.4012 8.50429 36.2593C8.23504 36.0571 7.27196 35.3194 7.22019 35.0665H7.20983Z" fill="#101010"></path><path d="M36.2407 33.0147C36.0028 33.0653 35.8163 32.9943 35.6505 32.8328C31.6843 28.4971 26.0405 25.344 26.8689 18.6638C27.4178 14.2272 30.5452 12.0745 33.6003 9.24478C34.301 8.53052 34.9615 7.87455 35.7334 7.15278C36.3652 6.64745 36.5825 6.50598 37.1831 7.15278C38.5397 8.61819 40.7558 12.7921 41.0356 14.7324C41.0754 15.231 40.8202 15.3381 40.3684 15.6202C38.2244 16.9592 37.8472 17.1389 35.3248 18.6638C34.1547 19.3712 34.3306 20.7255 35.4388 21.4026L40.4969 24.4041C40.8079 24.5557 40.9321 24.6669 40.8803 25.0105C40.6214 26.8498 38.6331 30.2556 37.4629 31.7513C37.2558 32.0141 36.4999 32.954 36.2407 33.0045V33.0147Z" fill="#101010"></path><path d="M7.21495 4.68316C7.21196 4.68316 7.20937 4.68523 7.20876 4.68809C7.15908 4.91817 7.23172 5.09868 7.39625 5.25922C11.8388 9.1299 15.0698 14.6378 21.915 13.8293C26.4611 13.2937 28.6669 10.2416 31.5664 7.26024C32.2984 6.5763 32.9705 5.93164 33.7101 5.17838C34.2278 4.56189 34.373 4.34965 33.7101 3.76349C32.2084 2.43958 27.9316 0.276848 25.9433 0.00397911C25.4324 -0.0349693 25.3228 0.214204 25.0337 0.654989C23.6616 2.74723 23.4775 3.11555 21.915 5.57711C21.1901 6.71913 19.8024 6.54731 19.1085 5.46595L16.0329 0.529492C15.8776 0.226305 15.7636 0.105035 15.4115 0.155566C13.5268 0.408223 10.037 2.34862 8.5043 3.49062C8.23668 3.69152 7.2837 4.4215 7.22124 4.67847C7.22053 4.68135 7.218 4.68316 7.21495 4.68316Z" fill="#101010"></path><path d="M4.79876 33.0147C5.03695 33.0653 5.22334 32.9943 5.38904 32.8328C9.35527 28.4971 14.9991 25.344 14.1707 18.6638C13.6218 14.2272 10.4944 12.0745 7.43946 9.24478C6.73864 8.53052 6.07806 7.87455 5.30621 7.15278C4.67451 6.64745 4.45703 6.50598 3.85639 7.15278C2.4998 8.61819 0.283682 12.7921 0.00407734 14.7324C-0.0358325 15.231 0.219492 15.3381 0.671158 15.6202C2.81504 16.9592 3.19246 17.1389 5.71479 18.6638C6.88499 19.3712 6.70893 20.7255 5.60088 21.4026L0.542563 24.4041C0.231891 24.5557 0.107628 24.6669 0.159407 25.0105C0.4183 26.8498 2.4066 30.2556 3.57678 31.7513C3.78391 32.0141 4.53987 32.954 4.79876 33.0045V33.0147Z" fill="#101010"></path><path d="M67.6314 23.8724V11.7509H70.7825V28.9208H67.6314L57.7839 16.005V28.9208H54.6328V11.7509H58.3094L67.6314 23.8724Z" fill="#101010"></path><path d="M80.1311 29.2796C75.877 29.2796 73.0674 26.3069 73.0674 22.5398C73.0674 18.7727 75.8508 15.8256 80.1311 15.8256C84.3325 15.8256 87.0897 18.7727 87.0897 22.5398C87.0897 26.3069 84.3063 29.2796 80.1311 29.2796ZM80.1311 26.4606C82.4945 26.4606 84.0699 24.6924 84.0699 22.5654C84.0699 20.3871 82.4945 18.6701 80.1311 18.6701C77.6888 18.6701 76.1134 20.3871 76.1134 22.5654C76.1134 24.718 77.7153 26.4606 80.1311 26.4606Z" fill="#101010"></path><path d="M99.7642 18.0295V10.4696H102.758V28.9208H99.7642V27.1782H99.6067C98.714 28.3826 97.1647 29.2796 95.1952 29.2796C91.4401 29.3308 88.7617 26.4863 88.7617 22.5398C88.7617 18.542 91.519 15.8 95.1952 15.8256C97.1647 15.8512 98.7402 16.7738 99.6329 18.0295H99.7642ZM95.7992 26.4863C98.1626 26.4863 99.738 24.7437 99.738 22.5654C99.738 20.4127 98.1626 18.6445 95.7992 18.6445C93.4096 18.6445 91.8077 20.3615 91.8077 22.5654C91.8077 24.7693 93.4096 26.4863 95.7992 26.4863Z" fill="#101010"></path><path d="M111.794 15.8256C116.127 15.8256 118.858 19.1827 118.464 23.5648H108.144C108.381 25.2049 109.799 26.5119 111.847 26.5632C113.317 26.5888 114.604 25.9481 115.129 24.923H118.254C117.414 27.6907 114.867 29.2796 111.794 29.2796C107.514 29.2796 105.02 26.1787 105.02 22.5654C105.02 18.7983 107.777 15.8256 111.794 15.8256ZM111.742 18.542C109.93 18.542 108.564 19.5927 108.197 21.1559H115.339C114.946 19.5671 113.58 18.542 111.742 18.542Z" fill="#101010"></path><path d="M127.627 22.386L132.721 28.9208H128.782L125.684 24.7693L122.638 28.9208H118.83L123.819 22.5141L118.883 16.1844H122.795L125.815 20.259L128.809 16.1844H132.432L127.627 22.386Z" fill="#101010"></path><path d="M139.932 29.2796C135.678 29.2796 132.868 26.3069 132.868 22.5398C132.868 18.7727 135.652 15.8256 139.932 15.8256C144.133 15.8256 146.89 18.7727 146.89 22.5398C146.89 26.3069 144.107 29.2796 139.932 29.2796ZM139.932 26.4606C142.295 26.4606 143.871 24.6924 143.871 22.5654C143.871 20.3871 142.295 18.6701 139.932 18.6701C137.49 18.6701 135.914 20.3871 135.914 22.5654C135.914 24.718 137.516 26.4606 139.932 26.4606Z" fill="#101010"></path></g><defs><clipPath id="clip0_18481_1792"><rect width="147" height="40" fill="white"></rect></clipPath></defs></svg>